<svg xmlns="http://www.w3.org/2000/svg" width="40" height="41" fill="none"><rect width="40" height="40" y=".5" fill="#fff" rx="20"/><path fill="#EBBC59" fill-rule="evenodd" d="M36.025 20.5c0 8.975-7.275 16.25-16.25 16.25S3.525 29.475 3.525 20.5 10.8 4.25 19.775 4.25s16.25 7.275 16.25 16.25Zm-14.693-4.986a3585.702 3585.702 0 0 1-10.841 4.63c-1.908.772-.791 1.495-.791 1.495s1.629.58 3.024 1.013c1.396.434 2.14-.048 2.14-.048s3.258-2.219 6.561-4.582c2.327-1.64 1.768-.29 1.21.29a180.475 180.475 0 0 1-4.886 4.822c-.744.676-.372 1.255-.046 1.544.947.83 3.178 2.342 4.191 3.028.28.19.468.317.508.348.233.193 1.536 1.061 2.327.869.79-.193.884-1.303.884-1.303s.605-3.955 1.163-7.572c.103-.71.207-1.406.303-2.054.25-1.686.454-3.054.488-3.541.14-1.64-1.535-.965-1.535-.965s-3.63 1.543-4.7 2.026Z" clip-rule="evenodd"/></svg>